<svg width="38" height="39" viewBox="0 0 38 39" fill="none" xmlns="http://www.w3.org/2000/svg">
<g clip-path="url(#clip0_312_55)">
<path d="M28.4999 10.0001H25.3333C25.3333 6.50092 22.4991 3.66675 18.9999 3.66675C15.5008 3.66675 12.6666 6.50092 12.6666 10.0001H9.49992C7.75825 10.0001 6.33325 11.4251 6.33325 13.1667V32.1668C6.33325 33.9084 7.75825 35.3334 9.49992 35.3334H28.4999C30.2416 35.3334 31.6666 33.9084 31.6666 32.1668V13.1667C31.6666 11.4251 30.2416 10.0001 28.4999 10.0001ZM18.9999 6.83342C20.7416 6.83342 22.1666 8.25842 22.1666 10.0001H15.8333C15.8333 8.25842 17.2583 6.83342 18.9999 6.83342ZM28.4999 32.1668H9.49992V13.1667H12.6666V16.3334C12.6666 17.2042 13.3791 17.9167 14.2499 17.9167C15.1208 17.9167 15.8333 17.2042 15.8333 16.3334V13.1667H22.1666V16.3334C22.1666 17.2042 22.8791 17.9167 23.7499 17.9167C24.6208 17.9167 25.3333 17.2042 25.3333 16.3334V13.1667H28.4999V32.1668Z" fill="#2FE402"/>
</g>
<defs>
<clipPath id="clip0_312_55">
<rect width="38" height="38" fill="white" transform="translate(0 0.5)"/>
</clipPath>
</defs>
</svg>
